#N canvas 1296 40 1235 836 12;
#X obj 379 457 netsend -u -b;
#X msg 379 416 connect 127.0.0.1 8001, f 25;
#X text 376 390 connecter par OSC à l'ordi;
#X msg 21 78 devices;
#X msg 100 78 close;
#X msg 100 107 baud 115200 \, open 4;
#X obj 21 221 oscparse, f 10;
#X obj 21 138 comport;
#X obj 21 181 pdchoco/slip_parse;
#X obj 20 264 list trim;
#X obj 20 315 route bouton angle;
#X obj 19 357 tgl 19 0 empty empty empty 0 -10 0 12 #fcfcfc #000000 #000000 0 1;
#X obj 81 358 nbx 5 17 -1e+37 1e+37 0 0 empty empty empty 0 -10 0 12 #fcfcfc #000000 #000000 0 256;
#X obj 213 418 oscformat -f i alpha;
#X obj 213 376 nbx 5 17 -1e+37 1e+37 0 0 empty empty empty 0 -10 0 12 #fcfcfc #000000 #000000 0 256;
#X obj 51 421 oscformat -f i beta;
#X obj 20 392 nbx 5 17 -1e+37 1e+37 0 0 empty empty empty 0 -10 0 12 #fcfcfc #000000 #000000 0 256;
#X connect 1 0 0 0;
#X connect 3 0 7 0;
#X connect 4 0 7 0;
#X connect 5 0 7 0;
#X connect 6 0 9 0;
#X connect 7 0 8 0;
#X connect 8 0 6 0;
#X connect 9 0 10 0;
#X connect 10 0 11 0;
#X connect 10 1 12 0;
#X connect 11 0 16 0;
#X connect 12 0 14 0;
#X connect 13 0 0 0;
#X connect 14 0 13 0;
#X connect 15 0 0 0;
#X connect 16 0 15 0;
