#N canvas 1208 110 1235 836 12;
#X obj 110 367 netsend -u -b;
#X msg 201 322 connect 127.0.0.1 8001, f 25;
#X text 198 296 connecter par OSC à l'ordi;
#X msg 21 78 devices;
#X msg 100 78 close;
#X msg 100 107 baud 115200 \, open 4;
#X obj 21 226 oscparse, f 10;
#X obj 20 144 comport;
#X msg 201 276 disconnect, f 25;
#X obj 20 186 pdchoco/slip_parse;
#X connect 1 0 0 0;
#X connect 3 0 7 0;
#X connect 4 0 7 0;
#X connect 5 0 7 0;
#X connect 6 0 0 0;
#X connect 7 0 9 0;
#X connect 8 0 0 0;
#X connect 9 0 6 0;
